# xmcd CD database file
#
# Track frame offsets:
#	150
#	11478
#	28427
#	48317
#	61264
#	77427
#	92987
#	113652
#	139578
#	156565
#
# Disc length: 2319 seconds
#
# Revision: 2
# Processed by: cddbd v1.5.2PL0 Copyright (c) Steve Scherf et al.
# Submitted via: CDex 1.70beta2
#
DISCID=7d090d0a
DTITLE=KLEVELAND - HARDER
DYEAR=2011
DGENRE=Rock
TTITLE0=DO IT BIG
TTITLE1=CRUTCH
TTITLE2=HARDER
TTITLE3=YOU'RE NOT SORRY
TTITLE4=LATE BLOOMER
TTITLE5=LOW
TTITLE6=SLOPPY SECONDS
TTITLE7=IT'S YOUR TURN
TTITLE8=GOLDEN GLOVES
TTITLE9=IT'S OVER
EXTD=YEAR: 2011
EXTT0=
EXTT1=
EXTT2=
EXTT3=
EXTT4=
EXTT5=
EXTT6=
EXTT7=
EXTT8=
EXTT9=
PLAYORDER=
